<?xml version="1.0" encoding="utf-8"?>
<!-- Generator: Adobe Illustrator 24.0.0, SVG Export Plug-In . SVG Version: 6.00 Build 0)  -->
<svg version="1.1" id="Calque_1" xmlns:v="https://vecta.io/nano"
	 xmlns="http://www.w3.org/2000/svg" xmlns:xlink="http://www.w3.org/1999/xlink" x="0px" y="0px" viewBox="0 0 116 32"
	 style="enable-background:new 0 0 116 32;" xml:space="preserve">
<style type="text/css">
	.st0{fill:#FD5631;}
	.st1{opacity:0.55;fill:#BE1E2D;enable-background:new    ;}
	.st2{fill:#FFFFFF;}
	.st3{fill:#FBDFDF;}
</style>
<path class="st0" d="M16,32c8.8,0,16-7.2,16-16S24.8,0,16,0S0,7.2,0,16S7.2,32,16,32z"/>
<path class="st1" d="M31.7,19.3L22,9.6c-3.2-3.2-8.3-3.2-11.5,0c0,0,0,0,0,0l0,0c-3.2,3.2-3.2,8.3,0,11.5c0,0,0,0,0,0l10.2,10.2
	C26.2,29.6,30.5,25,31.7,19.3L31.7,19.3z"/>
<path class="st2" d="M26.4,22.2L23.2,19c0.6-1.1,1-2.5,1-3.8c0-4.5-3.6-8.1-8.1-8.1S8,10.7,8,15.2c0,4.5,3.6,8.1,8.1,8.1
	c0,0,0,0,0.1,0c1.3,0,2.7-0.4,3.8-1l3.2,3.2c1,1,2.4,1,3.3,0C27.3,24.6,27.3,23.2,26.4,22.2L26.4,22.2z M16.1,21.4
	c-3.4,0-6.2-2.8-6.2-6.2S12.7,9,16.1,9s6.2,2.8,6.2,6.2S19.5,21.4,16.1,21.4z"/>
<g>
	<path class="st3" d="M42,15.5l-1.3,8.8c-0.1,0.8-0.2,1.3-0.2,1.6s0,0.5,0.1,0.8c-0.6,0.4-1.2,0.7-1.7,0.7c-0.3,0-0.5-0.2-0.5-0.5
		c0-0.2,0.1-0.7,0.2-1.6l1.4-9.7h-0.1c-0.6,0-1.1,0.2-1.8,0.5c0.3-0.9,0.6-1.5,0.8-1.7c0.2-0.3,0.6-0.4,1.1-0.4h0.2l1.1-7.6h-0.2
		c-1.3,0-2.4,0.5-3.2,1.5c0.2-1.3,0.7-2.2,1.2-2.7c0.4-0.3,1.7-0.5,3.9-0.5h2.4c1.8,0,3.3-0.2,4.5-0.7c-0.4,0.9-0.8,1.5-1.2,1.9
		c-0.4,0.3-1.1,0.5-1.9,0.5l-0.8,0h-2.8l-1.1,7.6h2c1.2,0,2.3-0.2,3.1-0.7c-0.3,1-0.6,1.6-1,1.8c-0.4,0.3-1.1,0.4-2.3,0.4H42z"/>
	<path class="st3" d="M59.3,14.1c0,0.2,0,0.4,0,0.5c0,2.5-0.6,4.6-1.8,6.4c-1.2,1.8-2.6,2.7-4.2,2.7c-1.2,0-2.2-0.5-3-1.6
		s-1.2-2.5-1.2-4.3c0-2,0.5-3.7,1.5-5.2c1-1.5,2.2-2.2,3.6-2.2c0.2,0,0.4,0,0.7,0.1c-0.2-0.4-0.2-0.7-0.2-1c0-0.4,0.1-0.8,0.3-1.2
		c1.5,0.2,2.7,1.2,3.7,3.2c1,1,2.1,1.4,3.2,1.4c0.7,0,1.5-0.3,2.3-1l0.5,1.1c-1,0.9-2,1.4-3,1.4C61,14.7,60.2,14.5,59.3,14.1z
		 M57.2,13c-0.5-0.2-1-0.6-1.4-1c-0.3-0.1-0.6-0.1-0.8-0.1c-1,0-2,0.7-2.8,2c-0.8,1.3-1.2,2.8-1.2,4.5c0,1.2,0.2,2.2,0.7,3
		c0.5,0.8,1.1,1.2,1.9,1.2c1,0,1.9-0.7,2.7-2.2c0.7-1.5,1.1-3.2,1.1-5.2C57.5,14.4,57.4,13.7,57.2,13z"/>
	<path class="st3" d="M64.3,23.5c-0.4,0.3-0.8,0.4-1,0.4c-0.6,0-0.9-0.4-0.9-1.1c0-0.4,0.1-1.4,0.3-2.9l0.5-3.2
		c0.3-1.9,0.4-3.3,0.4-4.2c0-0.5-0.1-0.9-0.3-1.2c0.6-0.3,1.2-0.5,1.6-0.5c0.4,0,0.6,0.4,0.6,1.1c0,0.5-0.2,1.7-0.5,3.7l-0.5,3.7
		c1.2-3.1,2.3-5.6,3.5-7.3c1.2-1.7,2.2-2.6,3.2-2.6c0.3,0,0.6,0.1,0.9,0.4c0.2,0.3,0.4,0.6,0.4,1c0,0.6-0.5,1.4-1.4,2.4
		c-0.2-0.7-0.6-1-1-1c-0.8,0-1.8,1.1-3,3.4c-0.7,1.4-1.4,2.9-2,4.4c-0.6,1.5-0.8,2.6-0.8,3.3L64.3,23.5z"/>
	<path class="st3" d="M77.8,19c0.2,0.6,0.3,1.3,0.3,1.9c0,1.3-0.4,2.4-1.2,3.4c-0.8,1-1.7,1.4-2.8,1.4c-0.6,0-1.1-0.2-1.6-0.7
		c-0.4-0.4-0.7-1-0.7-1.6c0-0.7,0.3-1.3,0.9-2c0.6-0.7,1.6-1.5,3-2.4l-0.7-1.6c-0.9-2-1.3-3.6-1.3-4.7c0-1.6,0.7-2.9,2-3.9
		c0.8,0.4,1.3,1,1.3,1.7c0,1-0.5,1.9-1.6,2.7l1.1,2.7l0.8,2.1c1.2-1,2.1-1.8,2.7-2.5c0.6-0.7,1.3-1.8,2.3-3.2l0.7,0.6
		C81.6,15.3,79.9,17.4,77.8,19z M76.2,20.2c-1.8,1.3-2.7,2.4-2.7,3.1c0,0.7,0.4,1,1.1,1c0.5,0,1-0.3,1.3-0.8c0.3-0.5,0.5-1.2,0.5-2
		C76.4,21.2,76.4,20.7,76.2,20.2z"/>
	<path class="st3" d="M87.4,18.5c0.2,0.4,0.2,0.8,0.2,1.1c0,0.8-0.5,1.8-1.5,2.8c-1,1-1.9,1.5-2.8,1.5c-0.7,0-1.3-0.5-1.8-1.4
		s-0.7-2.1-0.7-3.5c0-1.6,0.3-3.9,0.9-6.8l0.4-2.1h-1.6c-0.7,0-1.2,0.1-1.6,0.4c0.4-0.9,0.7-1.5,0.9-1.7c0.2-0.2,0.6-0.3,1.2-0.3
		h1.4l0.2-0.9c0.3-1.3,0.6-2.2,1-2.7c0.4-0.5,1-0.7,1.8-0.7c0.1,0,0.2,0,0.4,0c-0.5,0.9-1,2.3-1.5,4.3h4.9c0.9,0,1.5-0.2,2-0.5
		c-0.2,0.9-0.4,1.4-0.6,1.7S89.9,10,89.2,10h-5.2c-0.1,0.3-0.1,0.5-0.1,0.6c-0.7,3.5-1.1,6.2-1.1,7.9c0,2,0.5,3,1.5,3
		c0.5,0,1.1-0.3,1.7-0.9C86.7,20,87.1,19.3,87.4,18.5z"/>
	<path class="st3" d="M90.6,18.2c0,2.5,0.8,3.7,2.3,3.7c1.3,0,2.8-0.9,4.4-2.6s3-4,4.3-6.9l0.8,0.6c-1.2,3.1-2.8,5.7-4.7,7.7
		s-3.8,3.1-5.5,3.1c-1.1,0-2-0.5-2.6-1.5c-0.6-1-1-2.3-1-4c0-2.5,0.6-4.6,1.7-6.3c1.2-1.8,2.6-2.6,4.2-2.6c0.8,0,1.4,0.3,1.9,0.8
		c0.5,0.6,0.7,1.3,0.7,2.2c0,1.5-0.7,2.9-2,4C93.8,17.6,92.3,18.2,90.6,18.2z M90.7,17c1.3-0.1,2.4-0.6,3.3-1.5
		c0.9-0.9,1.4-2,1.4-3.2c0-1.1-0.3-1.6-1.1-1.6c-0.8,0-1.6,0.6-2.3,1.9C91.3,13.7,90.8,15.2,90.7,17z"/>
	<path class="st3" d="M102.5,16.3l-0.4,3c-0.2,1.1-0.2,2-0.2,2.8c0,0.5,0.1,0.9,0.2,1.4c-0.6,0.3-1.1,0.4-1.4,0.4
		c-0.5,0-0.8-0.4-0.8-1.2c0-0.6,0.1-1.6,0.3-3.1l2.3-15.8c-0.6,0.3-1,0.4-1.4,0.4c-0.7,0-1.1-0.4-1.1-1.3c0-0.3,0.1-0.8,0.2-1.6
		c0.4,0.6,1,0.9,1.6,0.9c0.8,0,1.8-0.4,2.9-1.1l-2,14.4c1-1.6,2-3.1,3.2-4.3c1.1-1.3,1.9-1.9,2.4-1.9c0.3,0,0.6,0.6,1,1.7
		c-0.6,0.1-1.4,0.6-2.5,1.4c-1,0.8-1.9,1.7-2.6,2.6c1.5,3.4,2.9,5.1,4.1,5.1c0.5,0,1.1-0.3,1.6-0.8c0.5-0.5,1.2-1.5,2.1-3
		c0.8-1.4,1.5-2.7,2-3.9l0.8,0.6c-1.1,2.9-2.3,5.2-3.5,6.9s-2.3,2.6-3.2,2.6c-0.8,0-1.7-0.6-2.8-1.9C104,19.4,103.1,17.9,102.5,16.3
		z"/>
</g>
</svg>
